# xmcd
#
# Track frame offsets: 
#        150
#        15107
#        32525
#        50464
#        65925
#        84392
#        106563
#        122874
#        139073
#        154922
#        171468
#        194280
#
# Disc length: 2826 seconds
#
# Revision: 0
# Processed by: cddbd v1.5.2PL0 Copyright (c) Steve Scherf et al.
# Submitted via: ExactAudioCopyFreeDBPlugin 1.0
#
DISCID=990b080c
DTITLE=红苹果 - DTSES极度烧II
DYEAR=2005
DGENRE=DTSES
TTITLE0=红苹果女子合唱团 - 请到天涯海角来
TTITLE1=红苹果女子合唱团 - 花田错
TTITLE2=红苹果女子合唱团 - 风中有朵雨做的云
TTITLE3=红苹果女子合唱团 - 桃花朵朵开
TTITLE4=红苹果女子合唱团 - 紫竹调
TTITLE5=红苹果女子合唱团 - 阿里郎
TTITLE6=红苹果女子合唱团 - 泉水叮咚响
TTITLE7=红苹果女子合唱团 - 枉凝眉
TTITLE8=红苹果女子合唱团 - 牡丹之歌
TTITLE9=红苹果女子合唱团 - 月亮走我也走
TTITLE10=红苹果女子合唱团 - 弯弯的月亮
TTITLE11=红苹果女子合唱团 - 在那桃花盛开的地方
EXTD=
EXTT0=
EXTT1=
EXTT2=
EXTT3=
EXTT4=
EXTT5=
EXTT6=
EXTT7=
EXTT8=
EXTT9=
EXTT10=
EXTT11=
PLAYORDER=
